<?xml version="1.0" encoding="utf-8"?><svg xml:space="preserve" viewBox="0 0 100 100" y="0" x="0" xmlns="http://www.w3.org/2000/svg" id="圖層_1" version="1.1" width="200px" height="200px" xmlns:xlink="http://www.w3.org/1999/xlink" style="width:100%;height:100%;background-size:initial;background-repeat-y:initial;background-repeat-x:initial;background-position-y:initial;background-position-x:initial;background-origin:initial;background-image:initial;background-color:rgb(255, 255, 255);background-clip:initial;background-attachment:initial;animation-play-state:paused" ><g class="ldl-scale" style="transform-origin:50% 50%;transform:rotate(0deg) scale(0.8, 0.8);animation-play-state:paused" ><circle fill="#ffdc6c" r="34.5" cy="47.6" cx="45.5" style="fill:rgb(255, 220, 108);animation-play-state:paused" ></circle>
<path stroke-miterlimit="10" stroke-width="3" stroke="#fff" fill="#e0e0e0" d="M83.8 74.4h-3.7c-2.4 0-4.5-1.9-4.5-4.3 0 0 0 0 0 0s0 0 0 0c0-2.4 2.1-4.3 4.5-4.3h1.5c4 0 7.4-3.1 7.5-7 .1-4.1-3.2-7.5-7.2-7.5H35.8c-4 0-7.4 3.1-7.5 7-.1 4.1 3.2 7.5 7.2 7.5h25.9c2.4 0 4.5 1.9 4.5 4.3 0 0 0 0 0 0s0 0 0 0c0 2.4-2.1 4.3-4.5 4.3H57c-3.4 0-6.4 2.2-7.3 5.3-.2.5-.3 1.1-.3 1.7 0 .8.1 1.6.3 2.3.9 3 3.7 5.2 6.9 5.2h26.7c4 0 7.4-3.1 7.5-7 .3-4.1-3-7.5-7-7.5z" style="stroke:rgb(255, 255, 255);fill:rgb(224, 224, 224);animation-play-state:paused" ></path>
<metadata xmlns:d="https://loading.io/stock/" style="animation-play-state:paused" ><d:name style="animation-play-state:paused" >sunny</d:name>
<d:tags style="animation-play-state:paused" >solar,sky,weather,cloud,mist,day,light,sunny,weather</d:tags>
<d:license style="animation-play-state:paused" >pro</d:license>
<d:slug style="animation-play-state:paused" >jqlyg0</d:slug></metadata></g><!-- generated by https://loading.io/ --></svg>